#!OML:ASF H:\Terrain\Patient Classification 1\Terrain2\Thursday\justin.ASF
:FULLY-SPECIFIED
:DEGREES
2436
root 19.9919 20.7326 -9.44101 -359.713 188.552 4.93319
lowerback 4.57496 0.273549 2.39803
upperback 2.77279 0.219775 3.09479
thorax 0.286261 0.0118545 1.82366
lowerneck -11.9118 2.93594 -9.36615
upperneck 41.2533 0.5087 2.99814
head 16.8866 -2.58801 2.59975
rclavicle 2.82771e-014 2.46493e-014
rhumerus -27.4893 -2.14736 -85.5241
rradius 33.1034
rwrist -10.1752
rhand -20.3024 10.6383
rfingers 7.12502
rthumb 6.04791 -19.2554
lclavicle 2.82771e-014 2.46493e-014
lhumerus -33.9165 6.72296 84.2978
lradius 37.7328
lwrist 8.20571
lhand -20.3352 22.743
lfingers 7.12502
lthumb 6.01618 52.6376
rfemur -10.9371 -2.67764 25.2393
rtibia 31.3051
rfoot -17.2913 0.461876
rtoes 11.4148
lfemur -10.8525 -3.2299 -14.3179
ltibia 29.2787
lfoot -13.7558 -13.96
ltoes 7.88734
2437
root 20.0134 20.7357 -9.45454 -359.796 189.11 4.95148
lowerback 4.68981 0.291548 2.435
upperback 2.89943 0.234244 3.12292
thorax 0.352769 0.015083 1.83143
lowerneck -12.0352 2.86405 -9.37055
upperneck 41.1336 0.554738 2.89582
head 16.8516 -2.54747 2.5699
rclavicle 2.17669e-014 -3.77691e-014
rhumerus -27.2007 -2.11028 -85.5232
rradius 32.9282
rwrist -9.94348
rhand -19.8649 10.5746
rfingers 7.12502
rthumb 6.4702 -19.3065
lclavicle 2.17669e-014 -3.77691e-014
lhumerus -33.7548 6.702 84.425
lradius 37.0814
lwrist 7.49138
lhand -19.9974 21.7424
lfingers 7.12502
lthumb 6.34232 51.6274
rfemur -10.6833 -2.81046 25.3647
rtibia 31.1241
rfoot -17.289 0.180828
rtoes 12.1229
lfemur -10.9253 -3.45612 -14.1956
ltibia 29.4167
lfoot -13.2429 -14.2784
ltoes 9.94009
2438
root 20.0356 20.7361 -9.46651 -359.84 189.581 5.09043
lowerback 4.85963 0.328796 2.61245
upperback 2.91457 0.292534 3.13973
thorax 0.274415 0.0434665 1.74658
lowerneck -12.0055 2.82831 -9.21476
upperneck 40.9982 0.592837 2.73475
head 16.7707 -2.49951 2.48043
rclavicle 4.77083e-015 2.46493e-014
rhumerus -27.1563 -2.04438 -85.6081
rradius 32.9021
rwrist -9.8462
rhand -20.0814 10.3648
rfingers 7.12502
rthumb 6.2612 -19.5227
lclavicle 4.77083e-015 2.46493e-014
lhumerus -33.7481 6.67441 84.433
lradius 36.4687
lwrist 6.71873
lhand -19.6949 20.5876
lfingers 7.12502
lthumb 6.63439 50.4637
rfemur -10.6228 -2.88773 25.6272
rtibia 31.0202
rfoot -17.116 -0.0256152
rtoes 13.0899
lfemur -11.0816 -3.57507 -13.9324
ltibia 29.5571
lfoot -12.8709 -14.6276
ltoes 13.3742
2439
root 20.0543 20.7292 -9.47748 -359.719 190.103 5.16646
lowerback 4.94692 0.382053 2.77167
upperback 2.83592 0.380117 3.15764
thorax 0.145245 0.08905 1.67146
lowerneck -11.9949 2.74728 -9.10435
upperneck 40.9913 0.494309 2.6665
head 16.776 -2.51925 2.41723
rclavicle 3.09607e-014 3.1408e-014
rhumerus -27.2303 -1.87617 -85.6876
rradius 32.928
rwrist -9.95353
rhand -20.7851 10.3388
rfingers 7.12502
rthumb 5.5818 -19.5677
lclavicle 3.09607e-014 3.1408e-014
lhumerus -33.9583 6.58149 84.5888
lradius 36.1594
lwrist 6.16054
lhand -19.6909 20.4948
lfingers 7.12502
lthumb 6.63823 50.3708
rfemur -10.7467 -3.27215 25.8371
rtibia 31.0131
rfoot -17.0254 -0.481612
rtoes 12.6216
lfemur -11.3882 -3.74782 -13.7587
ltibia 29.657
lfoot -12.6238 -14.8103
ltoes 16.9491
2440
root 20.065 20.7209 -9.49298 -359.535 190.784 5.13795
lowerback 4.85877 0.373211 2.89146
upperback 2.79033 0.375452 3.15279
thorax 0.148586 0.0900217 1.59972
lowerneck -12.115 2.65225 -9.10342
upperneck 41.0666 0.350483 2.75354
head 16.8606 -2.55886 2.43752
rclavicle -1.30701e-014 3.4191e-014
rhumerus -27.1823 -1.46967 -85.8206
rradius 32.8467
rwrist -10.1414
rhand -21.1711 10.3624
rfingers 7.12502
rthumb 5.20919 -19.5536
lclavicle -1.30701e-014 3.4191e-014
lhumerus -34.0492 6.80905 84.649
lradius 35.713
lwrist 4.98443
lhand -19.1282 20.4946
lfingers 7.12502
lthumb 7.18144 50.3528
rfemur -10.8944 -4.07897 25.8777
rtibia 31.0981
rfoot -17.3377 -1.03113
rtoes 10.5639
lfemur -11.683 -4.08816 -13.7538
ltibia 29.691
lfoot -12.8511 -14.8332
ltoes 16.8907
